<svg version="1.1" viewBox="0 0 100 100" xmlns="http://www.w3.org/2000/svg" xmlns:xlink="http://www.w3.org/1999/xlink">
    <g fill="transparent" stroke="rgba(255,0,0,0.9)" stroke-linejoin="round">
        <!-- <circle cx="50" cy="46.5" r="37" stroke="rgba(255,50,100,0.5)" stroke-width="5"/> -->
    </g>
    <path d="
    M 70 50 
    A 10 10, 10, 0 0, 50 35 
    A 10 10, 10, 0 0, 30 50 
    C 30 50 29 50 50 70
    C 50 70 50 70 70 50
    Z " 
    
    fill="transparent"
    stroke="rgba(0,0,0)"
    stroke-width="5" />

    <path d="
    M 71.92 51.56 
    A 14.95 14.95, 10, 0 0, 50 31.42 
    A 14.97 14.95, 0, 0 0, 28 51.5 

    C 33 57.3 26 50 50 73.49
    C 56 67.5 54.2 69.4 71.95 51.52 Z

    M 68.2 48.35 
    C 65 29 55 30 50 39.1 
    A 14.97 14.95, 0, 0 0, 28 51.5 

    C 33 57.3 26 50 50 73.49
    C 56 67.5 54.2 69.4 71.95 51.52
    " 
    
    fill="transparent"
    stroke="rgba(255,0,0)"
    stroke-width="0.1" />


</svg>