<?xml version="1.0" encoding="UTF-8" standalone="no"?>
<svg
   xmlns:dc="http://purl.org/dc/elements/1.1/"
   xmlns:cc="http://creativecommons.org/ns#"
   xmlns:rdf="http://www.w3.org/1999/02/22-rdf-syntax-ns#"
   xmlns:svg="http://www.w3.org/2000/svg"
   xmlns="http://www.w3.org/2000/svg"
   xmlns:sodipodi="http://sodipodi.sourceforge.net/DTD/sodipodi-0.dtd"
   xmlns:inkscape="http://www.inkscape.org/namespaces/inkscape"
   version="1.1"
   viewBox="0 0 100 100"
   id="svg22"
   sodipodi:docname="twitter.svg"
   inkscape:version="1.0.1 (3bc2e813f5, 2020-09-07)">
  <metadata
     id="metadata28">
    <rdf:RDF>
      <cc:Work
         rdf:about="">
        <dc:format>image/svg+xml</dc:format>
        <dc:type
           rdf:resource="http://purl.org/dc/dcmitype/StillImage" />
      </cc:Work>
    </rdf:RDF>
  </metadata>
  <defs
     id="defs26" />
  <sodipodi:namedview
     pagecolor="#ffffff"
     bordercolor="#666666"
     borderopacity="1"
     objecttolerance="10"
     gridtolerance="10"
     guidetolerance="10"
     inkscape:pageopacity="0"
     inkscape:pageshadow="2"
     inkscape:window-width="1366"
     inkscape:window-height="706"
     id="namedview24"
     showgrid="false"
     inkscape:zoom="4"
     inkscape:cx="50.1955"
     inkscape:cy="61.156316"
     inkscape:window-x="-8"
     inkscape:window-y="-8"
     inkscape:window-maximized="1"
     inkscape:current-layer="svg22"
     inkscape:document-rotation="0"
     showguides="false"
     inkscape:guide-bbox="true">
    <sodipodi:guide
       position="-6.6914498,50"
       orientation="1,0"
       id="guide84" />
  </sodipodi:namedview>
  <path
     style="fill:#00aaff;fill-rule:evenodd;stroke:#00aaff;stroke-width:0;stroke-linecap:round;stroke-linejoin:round"
     d="M 23.517858,29.251499 C 37.380913,44.275197 47.865576,42.31056 50.428492,42.772828 47.516087,32.718506 60.680162,20.006145 72.912269,31.10057 c 4.077367,-0.693402 6.407294,-1.964638 8.154737,-3.235875 -0.582482,3.698142 -5.242331,7.16515 -5.824812,7.16515 1.747442,0 5.24233,-0.577834 7.572256,-1.733505 -1.747444,2.889173 -5.242331,5.778346 -6.640286,6.356181 0.815472,39.292751 -41.705658,45.071096 -56.733673,32.705437 10.950645,0.808969 16.775459,-3.235874 19.687866,-5.547211 -11.067144,0.577834 -13.397069,-8.66752 -12.814587,-8.66752 1.747443,0.346702 4.077366,0.577835 5.824812,-0.577835 -9.3197,-1.733502 -11.067145,-10.401021 -10.484662,-12.712359 1.747441,1.733502 5.242329,1.733502 5.824812,1.386802 C 20.488956,43.928497 21.071437,31.562837 23.401361,29.251499 Z M 96.794,50.041986 a 46.5985,46.226766 0 1 0 0,0.01156"
     id="path20" />
</svg>
