<?xml version="1.0" encoding="UTF-8" standalone="no"?>
<svg
   xmlns:dc="http://purl.org/dc/elements/1.1/"
   xmlns:cc="http://creativecommons.org/ns#"
   xmlns:rdf="http://www.w3.org/1999/02/22-rdf-syntax-ns#"
   xmlns:svg="http://www.w3.org/2000/svg"
   xmlns="http://www.w3.org/2000/svg"
   xmlns:sodipodi="http://sodipodi.sourceforge.net/DTD/sodipodi-0.dtd"
   xmlns:inkscape="http://www.inkscape.org/namespaces/inkscape"
   version="1.1"
   viewBox="0 0 100 100"
   id="svg66"
   sodipodi:docname="whatsapp-round.svg"
   inkscape:version="1.0.1 (3bc2e813f5, 2020-09-07)">
  <metadata
     id="metadata72">
    <rdf:RDF>
      <cc:Work
         rdf:about="">
        <dc:format>image/svg+xml</dc:format>
        <dc:type
           rdf:resource="http://purl.org/dc/dcmitype/StillImage" />
      </cc:Work>
    </rdf:RDF>
  </metadata>
  <defs
     id="defs70" />
  <sodipodi:namedview
     pagecolor="#ffffff"
     bordercolor="#666666"
     borderopacity="1"
     objecttolerance="10"
     gridtolerance="10"
     guidetolerance="10"
     inkscape:pageopacity="0"
     inkscape:pageshadow="2"
     inkscape:window-width="1366"
     inkscape:window-height="706"
     id="namedview68"
     showgrid="false"
     inkscape:zoom="5.38"
     inkscape:cx="50"
     inkscape:cy="40.99082"
     inkscape:window-x="-8"
     inkscape:window-y="-8"
     inkscape:window-maximized="1"
     inkscape:current-layer="svg66" />
  <path
     style="fill:#00ff88;fill-rule:evenodd;stroke:#ff6347;stroke-width:0"
     d="m 50,96.4 a 46.3,46.3 0 1 1 0.1,-1e-4 M 21,79.4 25,63.9 a 29,29 0 1 1 12,11.5 l -16,4 m 7,-7 2,-9 a 24.1,24.1 0 1 1 7,6.8 z m 11.1,-36 c -14.1,8 15.9,37 25.4,23.8 1,-4.8 -0.5,-3.8 -4.5,-6 -2,-0.8 -2,-2.3 -4.5,1.2 -2,2.5 -1.5,2 -3.5,1.3 -1,-0.8 -4,-1.3 -8.5,-7.3 -0.5,-1.2 -1.5,-1.5 0,-3 3.5,-3 0.8,-4.1 0.6,-5.7 -1.5,-5.3 -3.1,-4.3 -5,-4.3 z"
     id="path64" />
</svg>
    />

                </svg> 